<mxfile host="app.diagrams.net" modified="2023-05-21T08:59:44.320Z" agent="Mozilla/5.0 (Windows NT 10.0; Win64; x64) AppleWebKit/537.36 (KHTML, like Gecko) Chrome/113.0.0.0 Safari/537.36" version="21.3.2" etag="2yv_DjL04BI8UAv4wYX7" type="github">
  <diagram name="Страница 1" id="W4uJ--VzwHjZc-Hl1yLU">
    <mxGraphModel>
      <root>
        <mxCell id="0" />
        <mxCell id="1" parent="0" />
      </root>
    </mxGraphModel>
  </diagram>
</mxfile>
